{
	"asset":{
		"generator":"Khronos glTF Blender I/O v5.1.19",
		"version":"2.0"
	},
	"scene":0,
	"scenes":[
		{
			"name":"Scene",
			"nodes":[
				0,
				1,
				2,
				3,
				4,
				5,
				6,
				7,
				8
			]
		}
	],
	"nodes":[
		{
			"mesh":0,
			"name":"polySurface1"
		},
		{
			"mesh":1,
			"name":"pCylinder4"
		},
		{
			"mesh":2,
			"name":"pCylinder7"
		},
		{
			"mesh":3,
			"name":"pCylinder8"
		},
		{
			"mesh":4,
			"name":"pCylinder6"
		},
		{
			"mesh":5,
			"name":"pCylinder5"
		},
		{
			"mesh":6,
			"name":"pCube1"
		},
		{
			"mesh":7,
			"name":"pCube5"
		},
		{
			"mesh":8,
			"name":"pCylinder9"
		}
	],
	"materials":[
		{
			"doubleSided":true,
			"name":"Material",
			"normalTexture":{
				"index":0
			},
			"pbrMetallicRoughness":{
				"baseColorTexture":{
					"index":1
				},
				"metallicRoughnessTexture":{
					"index":2
				}
			}
		}
	],
	"meshes":[
		{
			"name":"Mesh",
			"primitives":[
				{
					"attributes":{
						"POSITION":0,
						"NORMAL":1,
						"TEXCOORD_0":2
					},
					"indices":3,
					"material":0
				}
			]
		},
		{
			"name":"Mesh.001",
			"primitives":[
				{
					"attributes":{
						"POSITION":4,
						"NORMAL":5,
						"TEXCOORD_0":6
					},
					"indices":7,
					"material":0
				}
			]
		},
		{
			"name":"Mesh.004",
			"primitives":[
				{
					"attributes":{
						"POSITION":8,
						"NORMAL":9,
						"TEXCOORD_0":10
					},
					"indices":11,
					"material":0
				}
			]
		},
		{
			"name":"Mesh.005",
			"primitives":[
				{
					"attributes":{
						"POSITION":12,
						"NORMAL":13,
						"TEXCOORD_0":14
					},
					"indices":11,
					"material":0
				}
			]
		},
		{
			"name":"Mesh.006",
			"primitives":[
				{
					"attributes":{
						"POSITION":15,
						"NORMAL":16,
						"TEXCOORD_0":17
					},
					"indices":18,
					"material":0
				}
			]
		},
		{
			"name":"Mesh.007",
			"primitives":[
				{
					"attributes":{
						"POSITION":19,
						"NORMAL":20,
						"TEXCOORD_0":21
					},
					"indices":18,
					"material":0
				}
			]
		},
		{
			"name":"Mesh.003",
			"primitives":[
				{
					"attributes":{
						"POSITION":22,
						"NORMAL":23,
						"TEXCOORD_0":24
					},
					"indices":25,
					"material":0
				}
			]
		},
		{
			"name":"Mesh.002",
			"primitives":[
				{
					"attributes":{
						"POSITION":26,
						"NORMAL":27,
						"TEXCOORD_0":28
					},
					"indices":29,
					"material":0
				}
			]
		},
		{
			"name":"Mesh.008",
			"primitives":[
				{
					"attributes":{
						"POSITION":30,
						"NORMAL":31,
						"TEXCOORD_0":32
					},
					"indices":33,
					"material":0
				}
			]
		}
	],
	"textures":[
		{
			"sampler":0,
			"source":0
		},
		{
			"sampler":0,
			"source":1
		},
		{
			"sampler":0,
			"source":2
		}
	],
	"images":[
		{
			"mimeType":"image/png",
			"name":"3D_armchair_14_normal-1K",
			"uri":"3D_armchair_14_normal-1K.png"
		},
		{
			"mimeType":"image/png",
			"name":"3D_armchair_14_basecolor-1K",
			"uri":"3D_armchair_14_basecolor-1K.png"
		},
		{
			"mimeType":"image/png",
			"name":"3D_armchair_14_metallic-1K-3D_armchair_14_roughness-1K",
			"uri":"3D_armchair_14_metallic-1K-3D_armchair_14_roughness-1K.png"
		}
	],
	"accessors":[
		{
			"bufferView":0,
			"componentType":5126,
			"count":4022,
			"max":[
				0.296463280916214,
				0.7764236927032471,
				0.31287577748298645
			],
			"min":[
				-0.2964642643928528,
				0.3388395309448242,
				-0.33477455377578735
			],
			"type":"VEC3"
		},
		{
			"bufferView":1,
			"componentType":5126,
			"count":4022,
			"type":"VEC3"
		},
		{
			"bufferView":2,
			"componentType":5126,
			"count":4022,
			"type":"VEC2"
		},
		{
			"bufferView":3,
			"componentType":5123,
			"count":22860,
			"type":"SCALAR"
		},
		{
			"bufferView":4,
			"componentType":5126,
			"count":3053,
			"max":[
				0.32359206676483154,
				0.6150236129760742,
				0.1539130061864853
			],
			"min":[
				-0.32359206676483154,
				0.38784459233283997,
				-0.31750527024269104
			],
			"type":"VEC3"
		},
		{
			"bufferView":5,
			"componentType":5126,
			"count":3053,
			"type":"VEC3"
		},
		{
			"bufferView":6,
			"componentType":5126,
			"count":3053,
			"type":"VEC2"
		},
		{
			"bufferView":7,
			"componentType":5123,
			"count":11145,
			"type":"SCALAR"
		},
		{
			"bufferView":8,
			"componentType":5126,
			"count":141,
			"max":[
				-0.08189094066619873,
				0.3347156345844269,
				-0.061422914266586304
			],
			"min":[
				-0.09803138673305511,
				0.3320586681365967,
				-0.07756335288286209
			],
			"type":"VEC3"
		},
		{
			"bufferView":9,
			"componentType":5126,
			"count":141,
			"type":"VEC3"
		},
		{
			"bufferView":10,
			"componentType":5126,
			"count":141,
			"type":"VEC2"
		},
		{
			"bufferView":11,
			"componentType":5123,
			"count":372,
			"type":"SCALAR"
		},
		{
			"bufferView":12,
			"componentType":5126,
			"count":141,
			"max":[
				0.09807327389717102,
				0.3347156345844269,
				-0.061422914266586304
			],
			"min":[
				0.08193282783031464,
				0.3320586681365967,
				-0.07756335288286209
			],
			"type":"VEC3"
		},
		{
			"bufferView":13,
			"componentType":5126,
			"count":141,
			"type":"VEC3"
		},
		{
			"bufferView":14,
			"componentType":5126,
			"count":141,
			"type":"VEC2"
		},
		{
			"bufferView":15,
			"componentType":5126,
			"count":141,
			"max":[
				-0.08189094066619873,
				0.3347156345844269,
				0.10992784798145294
			],
			"min":[
				-0.09803138673305511,
				0.3320586681365967,
				0.09378741681575775
			],
			"type":"VEC3"
		},
		{
			"bufferView":16,
			"componentType":5126,
			"count":141,
			"type":"VEC3"
		},
		{
			"bufferView":17,
			"componentType":5126,
			"count":141,
			"type":"VEC2"
		},
		{
			"bufferView":18,
			"componentType":5123,
			"count":366,
			"type":"SCALAR"
		},
		{
			"bufferView":19,
			"componentType":5126,
			"count":141,
			"max":[
				0.09807327389717102,
				0.3347156345844269,
				0.10992784798145294
			],
			"min":[
				0.08193282783031464,
				0.3320586681365967,
				0.09378741681575775
			],
			"type":"VEC3"
		},
		{
			"bufferView":20,
			"componentType":5126,
			"count":141,
			"type":"VEC3"
		},
		{
			"bufferView":21,
			"componentType":5126,
			"count":141,
			"type":"VEC2"
		},
		{
			"bufferView":22,
			"componentType":5126,
			"count":485,
			"max":[
				0.10772278904914856,
				0.34307432174682617,
				0.12170261144638062
			],
			"min":[
				-0.10772278904914856,
				0.2917330265045166,
				-0.08985897898674011
			],
			"type":"VEC3"
		},
		{
			"bufferView":23,
			"componentType":5126,
			"count":485,
			"type":"VEC3"
		},
		{
			"bufferView":24,
			"componentType":5126,
			"count":485,
			"type":"VEC2"
		},
		{
			"bufferView":25,
			"componentType":5123,
			"count":1596,
			"type":"SCALAR"
		},
		{
			"bufferView":26,
			"componentType":5126,
			"count":574,
			"max":[
				0.2907360792160034,
				0.2929331064224243,
				0.306657999753952
			],
			"min":[
				-0.2907360792160034,
				4.254188388586044e-05,
				-0.2748141586780548
			],
			"type":"VEC3"
		},
		{
			"bufferView":27,
			"componentType":5126,
			"count":574,
			"type":"VEC3"
		},
		{
			"bufferView":28,
			"componentType":5126,
			"count":574,
			"type":"VEC2"
		},
		{
			"bufferView":29,
			"componentType":5123,
			"count":1263,
			"type":"SCALAR"
		},
		{
			"bufferView":30,
			"componentType":5126,
			"count":646,
			"max":[
				0.3226446509361267,
				0.6154241561889648,
				0.11663094907999039
			],
			"min":[
				-0.3229651153087616,
				0.4856800436973572,
				-0.1989881694316864
			],
			"type":"VEC3"
		},
		{
			"bufferView":31,
			"componentType":5126,
			"count":646,
			"type":"VEC3"
		},
		{
			"bufferView":32,
			"componentType":5126,
			"count":646,
			"type":"VEC2"
		},
		{
			"bufferView":33,
			"componentType":5123,
			"count":2694,
			"type":"SCALAR"
		}
	],
	"bufferViews":[
		{
			"buffer":0,
			"byteLength":48264,
			"byteOffset":0,
			"target":34962
		},
		{
			"buffer":0,
			"byteLength":48264,
			"byteOffset":48264,
			"target":34962
		},
		{
			"buffer":0,
			"byteLength":32176,
			"byteOffset":96528,
			"target":34962
		},
		{
			"buffer":0,
			"byteLength":45720,
			"byteOffset":128704,
			"target":34963
		},
		{
			"buffer":0,
			"byteLength":36636,
			"byteOffset":174424,
			"target":34962
		},
		{
			"buffer":0,
			"byteLength":36636,
			"byteOffset":211060,
			"target":34962
		},
		{
			"buffer":0,
			"byteLength":24424,
			"byteOffset":247696,
			"target":34962
		},
		{
			"buffer":0,
			"byteLength":22290,
			"byteOffset":272120,
			"target":34963
		},
		{
			"buffer":0,
			"byteLength":1692,
			"byteOffset":294412,
			"target":34962
		},
		{
			"buffer":0,
			"byteLength":1692,
			"byteOffset":296104,
			"target":34962
		},
		{
			"buffer":0,
			"byteLength":1128,
			"byteOffset":297796,
			"target":34962
		},
		{
			"buffer":0,
			"byteLength":744,
			"byteOffset":298924,
			"target":34963
		},
		{
			"buffer":0,
			"byteLength":1692,
			"byteOffset":299668,
			"target":34962
		},
		{
			"buffer":0,
			"byteLength":1692,
			"byteOffset":301360,
			"target":34962
		},
		{
			"buffer":0,
			"byteLength":1128,
			"byteOffset":303052,
			"target":34962
		},
		{
			"buffer":0,
			"byteLength":1692,
			"byteOffset":304180,
			"target":34962
		},
		{
			"buffer":0,
			"byteLength":1692,
			"byteOffset":305872,
			"target":34962
		},
		{
			"buffer":0,
			"byteLength":1128,
			"byteOffset":307564,
			"target":34962
		},
		{
			"buffer":0,
			"byteLength":732,
			"byteOffset":308692,
			"target":34963
		},
		{
			"buffer":0,
			"byteLength":1692,
			"byteOffset":309424,
			"target":34962
		},
		{
			"buffer":0,
			"byteLength":1692,
			"byteOffset":311116,
			"target":34962
		},
		{
			"buffer":0,
			"byteLength":1128,
			"byteOffset":312808,
			"target":34962
		},
		{
			"buffer":0,
			"byteLength":5820,
			"byteOffset":313936,
			"target":34962
		},
		{
			"buffer":0,
			"byteLength":5820,
			"byteOffset":319756,
			"target":34962
		},
		{
			"buffer":0,
			"byteLength":3880,
			"byteOffset":325576,
			"target":34962
		},
		{
			"buffer":0,
			"byteLength":3192,
			"byteOffset":329456,
			"target":34963
		},
		{
			"buffer":0,
			"byteLength":6888,
			"byteOffset":332648,
			"target":34962
		},
		{
			"buffer":0,
			"byteLength":6888,
			"byteOffset":339536,
			"target":34962
		},
		{
			"buffer":0,
			"byteLength":4592,
			"byteOffset":346424,
			"target":34962
		},
		{
			"buffer":0,
			"byteLength":2526,
			"byteOffset":351016,
			"target":34963
		},
		{
			"buffer":0,
			"byteLength":7752,
			"byteOffset":353544,
			"target":34962
		},
		{
			"buffer":0,
			"byteLength":7752,
			"byteOffset":361296,
			"target":34962
		},
		{
			"buffer":0,
			"byteLength":5168,
			"byteOffset":369048,
			"target":34962
		},
		{
			"buffer":0,
			"byteLength":5388,
			"byteOffset":374216,
			"target":34963
		}
	],
	"samplers":[
		{
			"magFilter":9729,
			"minFilter":9987
		}
	],
	"buffers":[
		{
			"byteLength":379604,
			"uri":"Armchair_15.bin"
		}
	]
}
