{
	"asset":{
		"generator":"Khronos glTF Blender I/O v5.1.19",
		"version":"2.0"
	},
	"extensionsUsed":[
		"KHR_materials_specular",
		"KHR_materials_ior"
	],
	"scene":0,
	"scenes":[
		{
			"name":"Scene",
			"nodes":[
				0
			]
		}
	],
	"nodes":[
		{
			"mesh":0,
			"name":"3DCookie001_LQ-2K-PNG",
			"rotation":[
				0.7071068286895752,
				0,
				0,
				0.7071068286895752
			]
		}
	],
	"materials":[
		{
			"doubleSided":true,
			"extensions":{
				"KHR_materials_specular":{
					"specularFactor":0.20000000298023224
				},
				"KHR_materials_ior":{
					"ior":1.4500000476837158
				}
			},
			"name":"3DCookie001_LQ-2K-PNG",
			"normalTexture":{
				"index":0
			},
			"pbrMetallicRoughness":{
				"baseColorTexture":{
					"index":1
				},
				"metallicFactor":0,
				"roughnessFactor":0.7763931751251221
			}
		}
	],
	"meshes":[
		{
			"name":"3DCookie001_LQ-2K-PNG",
			"primitives":[
				{
					"attributes":{
						"POSITION":0,
						"NORMAL":1,
						"TEXCOORD_0":2
					},
					"indices":3,
					"material":0
				}
			]
		}
	],
	"textures":[
		{
			"sampler":0,
			"source":0
		},
		{
			"sampler":0,
			"source":1
		}
	],
	"images":[
		{
			"mimeType":"image/png",
			"name":"3DCookie001_LQ-2K-PNG_NormalGL",
			"uri":"3DCookie001_LQ-2K-PNG_NormalGL.png"
		},
		{
			"mimeType":"image/png",
			"name":"3DCookie001_LQ-2K-PNG_Color",
			"uri":"3DCookie001_LQ-2K-PNG_Color.png"
		}
	],
	"accessors":[
		{
			"bufferView":0,
			"componentType":5126,
			"count":391,
			"max":[
				0.039643000811338425,
				0.0381460003554821,
				-3.600000127335079e-05
			],
			"min":[
				-0.040778998285532,
				-0.04123799875378609,
				-0.022631000727415085
			],
			"type":"VEC3"
		},
		{
			"bufferView":1,
			"componentType":5126,
			"count":391,
			"type":"VEC3"
		},
		{
			"bufferView":2,
			"componentType":5126,
			"count":391,
			"type":"VEC2"
		},
		{
			"bufferView":3,
			"componentType":5123,
			"count":1500,
			"type":"SCALAR"
		}
	],
	"bufferViews":[
		{
			"buffer":0,
			"byteLength":4692,
			"byteOffset":0,
			"target":34962
		},
		{
			"buffer":0,
			"byteLength":4692,
			"byteOffset":4692,
			"target":34962
		},
		{
			"buffer":0,
			"byteLength":3128,
			"byteOffset":9384,
			"target":34962
		},
		{
			"buffer":0,
			"byteLength":3000,
			"byteOffset":12512,
			"target":34963
		}
	],
	"samplers":[
		{
			"magFilter":9729,
			"minFilter":9987
		}
	],
	"buffers":[
		{
			"byteLength":15512,
			"uri":"Cookie.bin"
		}
	]
}
