{
  "accessors": [
    {
      "bufferView": 2,
      "componentType": 5126,
      "count": 5502,
      "max": [
        0.20808979868888855,
        0.7405851483345032,
        0.0793432742357254
      ],
      "min": [
        -0.20224568247795105,
        -0.014996463432908058,
        -0.08255625516176224
      ],
      "type": "VEC3"
    },
    {
      "bufferView": 2,
      "byteOffset": 66024,
      "componentType": 5126,
      "count": 5502,
      "max": [
        0.9999929666519165,
        0.9996329545974731,
        0.9999792575836182
      ],
      "min": [
        -0.9999964237213135,
        -0.9999948740005493,
        -0.9999792575836182
      ],
      "type": "VEC3"
    },
    {
      "bufferView": 3,
      "componentType": 5126,
      "count": 5502,
      "max": [
        0.9981986880302429,
        0.9999054670333862,
        0.99998939037323,
        1.0
      ],
      "min": [
        -0.9989892840385437,
        -0.9999686479568481,
        -0.9999997615814209,
        -1.0
      ],
      "type": "VEC4"
    },
    {
      "bufferView": 1,
      "componentType": 5126,
      "count": 5502,
      "max": [
        0.9889109134674072,
        0.9985948204994202
      ],
      "min": [
        0.0014051144244149327,
        0.0014051145408302546
      ],
      "type": "VEC2"
    },
    {
      "bufferView": 0,
      "componentType": 5125,
      "count": 24066,
      "type": "SCALAR"
    },
    {
      "bufferView": 2,
      "byteOffset": 132048,
      "componentType": 5126,
      "count": 514,
      "max": [
        0.003752482123672962,
        0.0037524919025599957,
        0.003754013916477561
      ],
      "min": [
        -0.0037524837534874678,
        -0.003752489574253559,
        -0.003754013916477561
      ],
      "type": "VEC3"
    },
    {
      "bufferView": 2,
      "byteOffset": 138216,
      "componentType": 5126,
      "count": 514,
      "max": [
        0.9995948672294617,
        0.9995949864387512,
        1.0
      ],
      "min": [
        -0.9995948672294617,
        -0.9995948672294617,
        -1.0
      ],
      "type": "VEC3"
    },
    {
      "bufferView": 3,
      "byteOffset": 88032,
      "componentType": 5126,
      "count": 514,
      "max": [
        0.971109926700592,
        0.39695799350738525,
        0.9999932050704956,
        1.0
      ],
      "min": [
        -0.002629481256008148,
        -0.8197661638259888,
        -0.9999932050704956,
        -1.0
      ],
      "type": "VEC4"
    },
    {
      "bufferView": 1,
      "byteOffset": 44016,
      "componentType": 5126,
      "count": 514,
      "max": [
        0.6753363013267517,
        0.6981192827224731
      ],
      "min": [
        0.6588793396949768,
        0.6786864399909973
      ],
      "type": "VEC2"
    },
    {
      "bufferView": 0,
      "byteOffset": 96264,
      "componentType": 5125,
      "count": 2496,
      "type": "SCALAR"
    },
    {
      "bufferView": 2,
      "byteOffset": 144384,
      "componentType": 5126,
      "count": 514,
      "max": [
        0.003752482123672962,
        0.0037524919025599957,
        0.0037540073972195387
      ],
      "min": [
        -0.0037524837534874678,
        -0.003752489574253559,
        -0.0037540073972195387
      ],
      "type": "VEC3"
    },
    {
      "bufferView": 2,
      "byteOffset": 150552,
      "componentType": 5126,
      "count": 514,
      "max": [
        0.9995948672294617,
        0.9995949864387512,
        1.0
      ],
      "min": [
        -0.9995948672294617,
        -0.9995948672294617,
        -1.0
      ],
      "type": "VEC3"
    },
    {
      "bufferView": 3,
      "byteOffset": 96256,
      "componentType": 5126,
      "count": 514,
      "max": [
        0.9711100459098816,
        0.3969581723213196,
        0.9999932050704956,
        1.0
      ],
      "min": [
        -0.002629462629556656,
        -0.8197664022445679,
        -0.9999932050704956,
        -1.0
      ],
      "type": "VEC4"
    },
    {
      "bufferView": 1,
      "byteOffset": 48128,
      "componentType": 5126,
      "count": 514,
      "max": [
        0.6753363013267517,
        0.6981192827224731
      ],
      "min": [
        0.6588793396949768,
        0.6786864399909973
      ],
      "type": "VEC2"
    },
    {
      "bufferView": 0,
      "byteOffset": 106248,
      "componentType": 5125,
      "count": 2496,
      "type": "SCALAR"
    }
  ],
  "asset": {
    "extras": {
      "author": "sickbrick (https://sketchfab.com/sickbrick)",
      "license": "CC-BY-4.0 (http://creativecommons.org/licenses/by/4.0/)",
      "source": "https://sketchfab.com/3d-models/scp-1507-pink-flamingos-from-go-home-annie-5adb2f340e4649fea598f509aee7d44e",
      "title": "SCP-1507 Pink Flamingos from Go Home Annie"
    },
    "generator": "Sketchfab-16.58.0",
    "version": "2.0"
  },
  "bufferViews": [
    {
      "buffer": 0,
      "byteLength": 116232,
      "name": "floatBufferViews",
      "target": 34963
    },
    {
      "buffer": 0,
      "byteLength": 52240,
      "byteOffset": 116232,
      "byteStride": 8,
      "name": "floatBufferViews",
      "target": 34962
    },
    {
      "buffer": 0,
      "byteLength": 156720,
      "byteOffset": 168472,
      "byteStride": 12,
      "name": "floatBufferViews",
      "target": 34962
    },
    {
      "buffer": 0,
      "byteLength": 104480,
      "byteOffset": 325192,
      "byteStride": 16,
      "name": "floatBufferViews",
      "target": 34962
    }
  ],
  "buffers": [
    {
      "byteLength": 429672,
      "uri": "scene.bin"
    }
  ],
  "images": [
    {
      "uri": "textures/PinkFlamingo_m_baseColor.png"
    },
    {
      "uri": "textures/PinkFlamingo_m_metallicRoughness.png"
    },
    {
      "uri": "textures/PinkFlamingo_m_normal.png"
    }
  ],
  "materials": [
    {
      "name": "PinkFlamingo_m",
      "normalTexture": {
        "index": 2
      },
      "occlusionTexture": {
        "index": 1
      },
      "pbrMetallicRoughness": {
        "baseColorTexture": {
          "index": 0
        },
        "metallicRoughnessTexture": {
          "index": 1
        }
      }
    }
  ],
  "meshes": [
    {
      "name": "Object_0",
      "primitives": [
        {
          "attributes": {
            "NORMAL": 1,
            "POSITION": 0,
            "TANGENT": 2,
            "TEXCOORD_0": 3
          },
          "indices": 4,
          "material": 0,
          "mode": 4
        }
      ]
    },
    {
      "name": "Object_1",
      "primitives": [
        {
          "attributes": {
            "NORMAL": 6,
            "POSITION": 5,
            "TANGENT": 7,
            "TEXCOORD_0": 8
          },
          "indices": 9,
          "material": 0,
          "mode": 4
        }
      ]
    },
    {
      "name": "Object_2",
      "primitives": [
        {
          "attributes": {
            "NORMAL": 11,
            "POSITION": 10,
            "TANGENT": 12,
            "TEXCOORD_0": 13
          },
          "indices": 14,
          "material": 0,
          "mode": 4
        }
      ]
    }
  ],
  "nodes": [
    {
      "children": [
        1
      ],
      "matrix": [
        1.0,
        0.0,
        0.0,
        0.0,
        0.0,
        2.220446049250313e-16,
        -1.0,
        0.0,
        0.0,
        1.0,
        2.220446049250313e-16,
        0.0,
        0.0,
        0.0,
        0.0,
        1.0
      ],
      "name": "Sketchfab_model"
    },
    {
      "children": [
        2
      ],
      "name": "root"
    },
    {
      "children": [
        3
      ],
      "matrix": [
        1.0,
        0.0,
        0.0,
        0.0,
        0.0,
        2.220446049250313e-16,
        1.0,
        0.0,
        0.0,
        -1.0,
        2.220446049250313e-16,
        0.0,
        0.0,
        0.0,
        0.0,
        1.0
      ],
      "name": "GLTF_SceneRootNode"
    },
    {
      "children": [
        4,
        5,
        7
      ],
      "matrix": [
        1.4853399991989136,
        0.0,
        0.0,
        0.0,
        0.0,
        1.4853399991989136,
        0.0,
        0.0,
        0.0,
        0.0,
        1.4853399991989136,
        0.0,
        0.0,
        0.0,
        0.0,
        1.0
      ],
      "name": "PinkFlamingo_Prefab (13)_0"
    },
    {
      "mesh": 0,
      "name": "Object_4"
    },
    {
      "children": [
        6
      ],
      "matrix": [
        1.0,
        0.0,
        0.0,
        0.0,
        0.0,
        1.0,
        0.0,
        0.0,
        0.0,
        0.0,
        1.0,
        0.0,
        0.15336036682128906,
        0.7219687700271606,
        -0.014795050024986267,
        1.0
      ],
      "name": "eyeLeft_1"
    },
    {
      "mesh": 1,
      "name": "Object_6"
    },
    {
      "children": [
        8
      ],
      "matrix": [
        1.0,
        0.0,
        0.0,
        0.0,
        0.0,
        1.0,
        0.0,
        0.0,
        0.0,
        0.0,
        1.0,
        0.0,
        0.15336036682128906,
        0.7219687700271606,
        0.011205926537513733,
        1.0
      ],
      "name": "eyeRight_2"
    },
    {
      "mesh": 2,
      "name": "Object_8"
    }
  ],
  "samplers": [
    {
      "magFilter": 9729,
      "minFilter": 9987,
      "wrapS": 33071,
      "wrapT": 33071
    },
    {
      "magFilter": 9729,
      "minFilter": 9987,
      "wrapS": 10497,
      "wrapT": 10497
    }
  ],
  "scene": 0,
  "scenes": [
    {
      "name": "Sketchfab_Scene",
      "nodes": [
        0
      ]
    }
  ],
  "textures": [
    {
      "sampler": 0,
      "source": 0
    },
    {
      "sampler": 1,
      "source": 1
    },
    {
      "sampler": 0,
      "source": 2
    }
  ]
}
