{
	"asset":{
		"generator":"Khronos glTF Blender I/O v4.4.55",
		"version":"2.0"
	},
	"scene":0,
	"scenes":[
		{
			"name":"Scene",
			"nodes":[
				0,
				1,
				2
			]
		}
	],
	"nodes":[
		{
			"mesh":0,
			"name":"Cube.003",
			"translation":[
				-5.949325084686279,
				0,
				1.6383180618286133
			]
		},
		{
			"mesh":1,
			"name":"Cube.002",
			"translation":[
				-5.973154544830322,
				0,
				-1.5991122722625732
			]
		},
		{
			"mesh":2,
			"name":"Cube.001"
		}
	],
	"materials":[
		{
			"doubleSided":true,
			"name":"Door",
			"normalTexture":{
				"index":0
			},
			"pbrMetallicRoughness":{
				"baseColorTexture":{
					"index":1
				},
				"metallicFactor":0,
				"metallicRoughnessTexture":{
					"index":2
				}
			}
		},
		{
			"doubleSided":true,
			"name":"Container",
			"normalTexture":{
				"index":3
			},
			"pbrMetallicRoughness":{
				"baseColorTexture":{
					"index":4
				},
				"metallicFactor":0,
				"metallicRoughnessTexture":{
					"index":5
				}
			}
		}
	],
	"meshes":[
		{
			"name":"Cube.003",
			"primitives":[
				{
					"attributes":{
						"POSITION":0,
						"NORMAL":1,
						"TEXCOORD_0":2
					},
					"indices":3,
					"material":0
				}
			]
		},
		{
			"name":"Cube.002",
			"primitives":[
				{
					"attributes":{
						"POSITION":4,
						"NORMAL":5,
						"TEXCOORD_0":6
					},
					"indices":7,
					"material":0
				}
			]
		},
		{
			"name":"Cube",
			"primitives":[
				{
					"attributes":{
						"POSITION":8,
						"NORMAL":9,
						"TEXCOORD_0":10
					},
					"indices":11,
					"material":1
				}
			]
		}
	],
	"textures":[
		{
			"sampler":0,
			"source":0
		},
		{
			"sampler":0,
			"source":1
		},
		{
			"sampler":0,
			"source":2
		},
		{
			"sampler":0,
			"source":3
		},
		{
			"sampler":0,
			"source":4
		},
		{
			"sampler":0,
			"source":5
		}
	],
	"images":[
		{
			"mimeType":"image/png",
			"name":"Metal053C_2K-PNG_NormalGL",
			"uri":"Metal053C_2K-PNG_NormalGL.png"
		},
		{
			"mimeType":"image/png",
			"name":"Metal053C_2K-PNG_Color_Dark_Red",
			"uri":"Metal053C_2K-PNG_Color_Dark_Red.png"
		},
		{
			"mimeType":"image/png",
			"name":"Metal053C_2K-PNG_Roughness",
			"uri":"Metal053C_2K-PNG_Roughness.png"
		},
		{
			"mimeType":"image/png",
			"name":"Scp812_Cube.001_nor",
			"uri":"Scp812_Cube_001_nor.png"
		},
		{
			"mimeType":"image/png",
			"name":"Scp812_Cube.001_base",
			"uri":"Scp812_Cube_001_base.png"
		},
		{
			"mimeType":"image/png",
			"name":"Scp812_Cube.001_rough",
			"uri":"Scp812_Cube_001_rough.png"
		}
	],
	"accessors":[
		{
			"bufferView":0,
			"componentType":5126,
			"count":84,
			"max":[
				0.0476234033703804,
				1.7058696746826172,
				0.05168962478637695
			],
			"min":[
				-0.3290444016456604,
				-1.7058696746826172,
				-1.6069616079330444
			],
			"type":"VEC3"
		},
		{
			"bufferView":1,
			"componentType":5126,
			"count":84,
			"type":"VEC3"
		},
		{
			"bufferView":2,
			"componentType":5126,
			"count":84,
			"type":"VEC2"
		},
		{
			"bufferView":3,
			"componentType":5123,
			"count":204,
			"type":"SCALAR"
		},
		{
			"bufferView":4,
			"componentType":5126,
			"count":84,
			"max":[
				0.044634658843278885,
				1.7058696746826172,
				1.6185147762298584
			],
			"min":[
				-0.3320331275463104,
				-1.7058696746826172,
				-0.06368905305862427
			],
			"type":"VEC3"
		},
		{
			"bufferView":5,
			"componentType":5126,
			"count":84,
			"type":"VEC3"
		},
		{
			"bufferView":6,
			"componentType":5126,
			"count":84,
			"type":"VEC2"
		},
		{
			"bufferView":7,
			"componentType":5123,
			"count":204,
			"type":"SCALAR"
		},
		{
			"bufferView":8,
			"componentType":5126,
			"count":1248,
			"max":[
				5.999804973602295,
				1.875,
				1.875
			],
			"min":[
				-5.999804973602295,
				-1.875,
				-1.875
			],
			"type":"VEC3"
		},
		{
			"bufferView":9,
			"componentType":5126,
			"count":1248,
			"type":"VEC3"
		},
		{
			"bufferView":10,
			"componentType":5126,
			"count":1248,
			"type":"VEC2"
		},
		{
			"bufferView":11,
			"componentType":5123,
			"count":2484,
			"type":"SCALAR"
		}
	],
	"bufferViews":[
		{
			"buffer":0,
			"byteLength":1008,
			"byteOffset":0,
			"target":34962
		},
		{
			"buffer":0,
			"byteLength":1008,
			"byteOffset":1008,
			"target":34962
		},
		{
			"buffer":0,
			"byteLength":672,
			"byteOffset":2016,
			"target":34962
		},
		{
			"buffer":0,
			"byteLength":408,
			"byteOffset":2688,
			"target":34963
		},
		{
			"buffer":0,
			"byteLength":1008,
			"byteOffset":3096,
			"target":34962
		},
		{
			"buffer":0,
			"byteLength":1008,
			"byteOffset":4104,
			"target":34962
		},
		{
			"buffer":0,
			"byteLength":672,
			"byteOffset":5112,
			"target":34962
		},
		{
			"buffer":0,
			"byteLength":408,
			"byteOffset":5784,
			"target":34963
		},
		{
			"buffer":0,
			"byteLength":14976,
			"byteOffset":6192,
			"target":34962
		},
		{
			"buffer":0,
			"byteLength":14976,
			"byteOffset":21168,
			"target":34962
		},
		{
			"buffer":0,
			"byteLength":9984,
			"byteOffset":36144,
			"target":34962
		},
		{
			"buffer":0,
			"byteLength":4968,
			"byteOffset":46128,
			"target":34963
		}
	],
	"samplers":[
		{
			"magFilter":9729,
			"minFilter":9987
		}
	],
	"buffers":[
		{
			"byteLength":51096,
			"uri":"Container.bin"
		}
	]
}
